<svg width="650" height="650" viewBox="0 0 650 650" fill="none" xmlns="http://www.w3.org/2000/svg">
<circle cx="325" cy="325" r="325" fill="white"/>
<path d="M256.031 254.076C262.731 256.563 266.863 258.997 270.922 263.571C273.723 267.208 276.05 271.2 279.354 274.477C297.902 295.346 329.892 302.287 354.779 289.047C371.429 280.916 384.896 265.817 389.216 248.111C393.656 230.967 389.924 210.445 376.959 198.182C364.696 186.587 342.603 183.077 328.614 193.254C321.567 198.055 316.404 206.192 313.355 215.213C310.106 224.761 309.524 234.918 308.675 245.022C307.859 254.176 307.531 267.469 307.257 276.764C306.408 305.289 304.97 344.326 303.553 372.824H299.822L298.35 340.788C297.441 317.646 296.291 283.731 295.622 260.675C295.408 232.424 294.312 199.934 318.986 180.362C339.855 164.481 369.784 168.078 389.109 184.594C398.751 193.127 405.123 204.441 408.159 216.403C425.09 285.918 345.786 341.29 285.138 305.643C275.957 300.381 267.739 293.453 260.885 285.376C257.234 280.628 252.921 275.72 251.811 269.649C250.922 264.306 251.584 259.632 254.934 254.443L256.031 254.076Z" fill="black"/>
<path d="M239.401 284.146C241.801 276.189 244.068 266.192 245.051 254.544C245.807 245.577 245.64 237.52 245.085 230.666C249.491 235.755 255.415 241.692 263.098 247.45C272.58 254.551 281.674 259.078 288.815 261.973C281.627 263.384 272.493 265.858 262.483 270.385C252.794 274.771 245.111 279.806 239.401 284.146Z" fill="black"/>
<path d="M442.689 266.834C432.933 301.083 408.052 331.681 367.076 347.435C353.121 352.477 338.324 354.891 323.64 354.723V352.035C338.043 351.701 352.279 348.786 365.505 343.403C399.359 330.177 424.187 300.635 433.716 266.787C437.861 252.217 439.098 236.797 436.965 221.612C436.236 216.008 435.006 210.459 433.321 204.962C418.303 150.934 361.413 114.498 306.314 125.598C276.499 131.034 251.778 147.684 235.242 170.158C223.192 186.467 215.509 205.858 213.33 226.266C211.37 244.146 213.664 262.755 221.006 280.689C231.377 306.807 251.611 328.498 276.552 341.952L275.322 344.814C248.923 335.339 225.887 315.553 212.32 290.893C199.655 267.576 195.169 243.417 197.241 220.549C199.033 199.359 206.436 179.352 218.09 162.147C244.937 122.295 294.539 97.748 349.918 110.299C409.777 124.816 443.07 172.679 447.049 222.568C448.239 237.406 446.781 252.484 442.689 266.834Z" fill="#5EBDBA"/>
<path d="M150 414.75L150.876 413.874H176.981C197.188 413.874 208.107 424.292 208.107 441.483C208.107 455.164 199.073 468.464 180.498 468.464C174.727 468.464 167.446 466.204 164.811 460.306L165.567 468.09V497.832L164.691 498.587H150.883L150.007 497.832V414.75H150ZM174.721 456.04C183.38 456.04 192.541 452.022 192.541 441.483C192.541 432.697 187.017 427.174 176.854 427.174H165.56V454.409C168.194 455.418 171.458 456.04 174.721 456.04Z" fill="black"/>
<path d="M222.918 414.75L223.794 413.874H271.864L272.74 414.75V426.799L271.864 427.675H238.478V447.254H267.846L268.474 448.257L265.338 460.433L264.208 461.062H238.478V484.786H272.239L272.994 485.789L271.236 497.839L270.233 498.594H223.794L222.918 497.718V414.75Z" fill="black"/>
<path d="M305.88 427.675H282.784L281.908 426.799V414.75L282.784 413.874H346.669L347.297 414.877L344.161 427.053L343.031 427.682H321.446V497.718L320.571 498.594H306.763L305.887 497.718V427.675H305.88Z" fill="black"/>
<path d="M358.216 414.75L359.092 413.874H383.693C399.252 413.874 415.066 420.4 415.066 439.604C415.066 461.443 394.104 464.078 394.104 464.078L397.614 468.344L406.528 481.149C407.531 482.653 410.165 485.415 414.438 485.415C416.945 485.415 418.457 484.913 418.457 484.913L419.332 485.789L417.326 497.839L416.451 498.715C415.695 498.842 413.187 498.969 412.057 498.969C400.51 498.969 394.358 490.309 393.107 488.297L378.55 465.829L377.293 465.074H373.776V497.705L372.9 498.581H359.092L358.216 497.705V414.75ZM383.94 452.028C392.726 452.028 399.5 448.638 399.5 439.604C399.5 430.571 392.726 427.181 383.94 427.181H373.776V452.035H383.94V452.028Z" fill="black"/>
<path d="M453.976 415.379L454.852 414.503L468.78 412.871L469.656 413.747L499.78 497.712L498.904 498.588H484.474L483.598 497.712L477.199 478.507H447.075L440.676 497.712L439.8 498.588H425.364L424.488 497.712L453.976 415.379ZM472.799 465.455L464.387 440.226L462.127 431.941L459.867 440.226L451.455 465.455H472.799Z" fill="black"/>
<path d="M175.256 538.004C172.888 538.004 171.411 537.462 170.475 536.326C169.585 535.189 169.244 533.464 169.244 531.003V518.579L161.16 536.526H160.518L152.14 518.238V536.526H150.809V515.176H153.918L161.662 531.986L169.251 515.176H172.16V531.003C172.16 534.948 173.143 537.315 175.269 537.315V538.004H175.256Z" fill="#5EBDBA"/>
<path d="M193.303 536.527H191.678L190.541 535.05H190.394C189.706 535.886 188.321 536.875 185.861 536.875C184.925 536.875 183.788 536.581 182.852 535.939C181.916 535.25 181.173 534.114 181.173 532.342C181.173 530.57 182.109 529.433 183.641 528.744C185.172 528.055 187.191 527.808 189.411 527.808H190.394C190.394 525.588 190 524.157 189.411 523.321C188.769 522.579 187.934 522.285 186.997 522.285C185.172 522.285 183.888 522.927 183.447 525.046H181.969C181.969 523.91 181.969 522.927 182.758 522.138C183.153 521.743 183.895 521.449 184.777 521.248C185.667 521.101 186.603 521.001 187.639 521.001C189.07 521.001 190.501 521.248 191.584 522.185C192.621 523.167 193.31 524.893 193.31 527.801V536.527H193.303ZM190.394 529.085H189.411C186.155 529.085 184.236 530.369 184.236 532.342C184.236 533.378 184.63 534.114 185.172 534.662C185.714 535.157 186.503 535.404 187.292 535.404C188.87 535.404 189.706 534.468 190.401 533.478V529.085H190.394Z" fill="#5EBDBA"/>
<path d="M205.185 536.527H202.229V525.187C202.229 523.261 201.935 521.984 200.009 521.984H199.662V521.342H202.223C203.901 521.342 204.636 521.783 204.984 522.773H205.178C205.82 521.984 207.104 521.001 209.023 521.001C209.665 521.001 210.501 521.148 210.996 521.496C211.437 521.843 211.738 522.285 212.132 522.927L210.802 523.91C210.307 523.268 209.371 522.927 208.241 522.927C206.957 522.927 205.827 523.569 205.185 524.552V536.527Z" fill="#5EBDBA"/>
<path d="M221.895 528.59L225.94 523.415C226.977 522.184 228.06 521.342 230.18 521.342H231.116V522.131C229.979 522.131 228.849 522.572 228.06 523.608L224.509 528.095L228.555 533.271C229.785 534.949 230.822 535.685 232.105 535.932V536.52C231.758 536.668 231.122 536.868 230.481 536.868C228.856 536.868 227.278 536.179 225.8 534.254L221.908 529.078V536.52H219V519.068C219 517.096 218.705 515.812 216.733 515.812H216.091V515.17H219C220.136 515.17 220.872 515.317 221.32 515.859C221.815 516.447 221.908 517.483 221.908 519.062V528.59H221.895Z" fill="#5EBDBA"/>
<path d="M250.882 529.426H241.072C241.072 531.198 241.467 532.729 242.209 533.813C242.998 534.896 244.035 535.538 245.412 535.538C247.532 535.538 248.816 534.602 249.946 532.977L250.588 533.472C249.157 535.939 247.238 536.875 244.77 536.875C242.503 536.875 240.825 535.939 239.695 534.508C238.558 533.077 238.017 531.105 238.017 528.938C238.017 526.718 238.558 524.746 239.695 523.315C240.832 521.884 242.41 521.001 244.476 521.001C248.862 521.001 250.935 523.562 250.935 528.102L250.882 529.426ZM247.879 528.096C247.879 524.351 246.743 522.278 244.476 522.278C243.439 522.278 242.65 522.92 242.062 523.956C241.42 524.993 241.079 526.424 241.079 528.096H247.879Z" fill="#5EBDBA"/>
<path d="M259.461 522.625H257.194V521.341H259.461V518.432L261.039 516.46H262.369V521.341H266.214V522.625H262.369V532.635C262.369 534.608 263.112 535.544 264.636 535.544C265.773 535.544 266.408 535.249 267.05 534.902L267.344 535.544C266.997 535.838 266.602 536.132 265.967 536.38C265.278 536.674 264.436 536.874 263.305 536.874C261.039 536.874 259.461 535.591 259.461 532.635V522.625Z" fill="#5EBDBA"/>
<path d="M277.361 536.526H274.452V525.185C274.452 523.26 274.158 521.983 272.185 521.983H271.543V521.341H274.452C275.589 521.341 276.324 521.441 276.772 522.029C277.22 522.618 277.361 523.607 277.361 525.185V536.526ZM277.16 517.937C277.16 518.826 276.572 519.368 275.682 519.368C274.7 519.368 273.857 518.432 273.857 517.295C273.857 516.406 274.445 515.864 275.335 515.864C276.371 515.871 277.16 516.807 277.16 517.937Z" fill="#5EBDBA"/>
<path d="M289.491 536.527H286.582V525.187C286.582 523.261 286.288 521.984 284.315 521.984H283.673V521.342H286.582C288.26 521.342 288.996 521.837 289.344 522.626H289.491C290.327 521.837 291.758 521.001 293.683 521.001C295.114 521.001 296.445 521.248 297.481 522.138C298.518 523.027 299.206 524.505 299.206 526.818V536.534H296.298V526.818C296.298 525.24 295.856 524.11 295.215 523.415C294.526 522.773 293.636 522.479 292.747 522.479C291.417 522.479 290.333 523.268 289.491 524.157V536.527Z" fill="#5EBDBA"/>
<path d="M307.384 525.875C307.384 524.003 308.073 522.773 309.156 522.031C310.293 521.288 311.817 520.994 313.495 520.994H319.513V521.837L317.394 522.131V522.278C318.678 522.92 319.661 524.204 319.661 525.875C319.661 527.701 318.972 528.931 317.889 529.673C316.805 530.416 315.174 530.71 313.502 530.71C311.235 530.71 310.099 531.104 310.099 531.847C310.099 532.589 311.235 532.983 313.502 532.983C315.475 532.983 317.247 533.378 318.531 534.12C319.814 534.956 320.65 536.193 320.65 538.018C320.65 539.844 319.861 541.074 318.577 541.863C317.293 542.699 315.568 543 313.502 543C311.483 543 309.758 542.706 308.474 541.863C307.19 541.074 306.401 539.844 306.401 538.018C306.401 535.899 308.026 534.421 309.951 533.779C309.31 533.431 308.668 532.843 308.668 531.853C308.668 530.864 309.31 530.422 309.804 530.081C308.521 529.426 307.384 527.948 307.384 525.875ZM312.065 534.113C310.386 534.755 309.303 535.885 309.303 538.012C309.303 540.573 311.075 541.709 313.495 541.709C315.963 541.709 317.735 540.573 317.735 538.012C317.735 535.845 316.404 534.608 313.843 534.267L312.065 534.113ZM316.752 525.875C316.752 523.261 315.321 522.131 313.495 522.131C312.606 522.131 311.817 522.378 311.229 522.92C310.687 523.508 310.293 524.451 310.293 525.875C310.293 527.253 310.687 528.142 311.229 528.737C311.817 529.326 312.606 529.573 313.495 529.573C314.432 529.573 315.221 529.326 315.816 528.737C316.411 528.149 316.752 527.26 316.752 525.875Z" fill="#5EBDBA"/>
<path d="M355.555 531.104C355.555 532.93 354.913 534.407 353.783 535.444C352.599 536.48 350.921 537.069 348.855 537.069C347.083 537.069 345.257 536.674 343.873 536.032C342.442 535.343 341.459 534.307 341.459 533.124V529.673H342.048C342.79 534.013 344.91 535.785 348.554 535.785C349.691 535.785 350.72 535.491 351.509 534.949C352.298 534.407 352.793 533.571 352.793 532.482C352.793 530.556 351.61 529.426 349.243 527.995L345.251 525.681C342.489 524.003 341.453 522.525 341.453 520.111C341.453 518.433 342.141 517.055 343.225 516.072C344.308 515.136 345.839 514.595 347.758 514.595C349.336 514.595 351.108 514.942 352.439 515.631C353.77 516.273 354.706 517.31 354.706 518.493V521.943H354.164C353.375 517.604 351.402 515.879 347.752 515.879C346.815 515.879 345.826 516.226 345.137 516.768C344.448 517.31 344 518.145 344 519.182C344 520.118 344.248 520.807 344.89 521.449C345.478 522.09 346.421 522.732 347.551 523.421L351.543 525.788C352.92 526.577 353.957 527.266 354.599 528.109C355.254 528.931 355.555 529.921 355.555 531.104Z" fill="#5EBDBA"/>
<path d="M362.649 528.931C362.649 526.711 363.291 524.739 364.522 523.308C365.705 521.877 367.43 520.994 369.751 520.994C371.971 520.994 373.796 521.883 375.026 523.308C376.257 524.739 376.852 526.711 376.852 528.931C376.852 531.098 376.263 533.07 375.026 534.501C373.796 535.932 371.971 536.868 369.751 536.868C367.437 536.868 365.705 535.932 364.522 534.501C363.291 533.077 362.649 531.104 362.649 528.931ZM373.796 528.931C373.796 527.059 373.402 525.381 372.713 524.197C371.971 523.014 370.941 522.271 369.757 522.271C368.574 522.271 367.537 523.014 366.849 524.197C366.106 525.381 365.712 527.059 365.712 528.931C365.712 530.757 366.106 532.435 366.849 533.612C367.537 534.795 368.574 535.538 369.757 535.538C370.941 535.538 371.977 534.795 372.713 533.612C373.402 532.435 373.796 530.757 373.796 528.931Z" fill="#5EBDBA"/>
<path d="M387.892 536.526H384.983V519.074C384.983 517.102 384.635 515.818 382.716 515.818H382.074V515.176H384.983C386.12 515.176 386.855 515.323 387.297 515.865C387.738 516.453 387.885 517.489 387.885 519.067V536.526H387.892Z" fill="#5EBDBA"/>
<path d="M406.627 521.342H409.536V536.527H407.911L406.774 535.243H406.627C405.791 536.032 404.36 536.868 402.388 536.868C401.01 536.868 399.673 536.574 398.643 535.685C397.607 534.795 396.918 533.371 396.918 531.004V525.187C396.918 523.261 396.571 521.984 394.651 521.984H394.304V521.342H396.918C398.055 521.342 398.79 521.442 399.238 522.031C399.68 522.619 399.827 523.609 399.827 525.187V531.004C399.827 532.682 400.268 533.766 400.964 534.408C401.606 535.096 402.495 535.39 403.378 535.39C404.661 535.39 405.791 534.601 406.634 533.665V521.342H406.627Z" fill="#5EBDBA"/>
<path d="M419.005 522.625H416.738V521.341H419.005V518.432L420.583 516.46H421.914V521.341H425.759V522.625H421.914V532.635C421.914 534.608 422.656 535.544 424.181 535.544C425.317 535.544 425.953 535.249 426.594 534.902L426.889 535.544C426.541 535.838 426.146 536.132 425.511 536.38C424.822 536.674 423.98 536.874 422.85 536.874C420.583 536.874 419.005 535.591 419.005 532.635V522.625Z" fill="#5EBDBA"/>
<path d="M436.898 536.526H433.989V525.185C433.989 523.26 433.695 521.983 431.722 521.983H431.081V521.341H433.989C435.126 521.341 435.862 521.441 436.31 522.029C436.758 522.618 436.898 523.607 436.898 525.185V536.526ZM436.704 517.937C436.704 518.826 436.116 519.368 435.226 519.368C434.243 519.368 433.401 518.432 433.401 517.295C433.401 516.406 433.989 515.864 434.879 515.864C435.915 515.871 436.704 516.807 436.704 517.937Z" fill="#5EBDBA"/>
<path d="M444.789 528.931C444.789 526.711 445.43 524.739 446.661 523.308C447.844 521.877 449.57 520.994 451.89 520.994C454.11 520.994 455.935 521.883 457.166 523.308C458.396 524.739 458.991 526.711 458.991 528.931C458.991 531.098 458.403 533.07 457.166 534.501C455.935 535.932 454.11 536.868 451.89 536.868C449.57 536.868 447.844 535.932 446.661 534.501C445.43 533.077 444.789 531.104 444.789 528.931ZM455.929 528.931C455.929 527.059 455.534 525.381 454.845 524.197C454.103 523.014 453.073 522.271 451.89 522.271C450.706 522.271 449.67 523.014 448.981 524.197C448.239 525.381 447.844 527.059 447.844 528.931C447.844 530.757 448.239 532.435 448.981 533.612C449.67 534.795 450.706 535.538 451.89 535.538C453.073 535.538 454.11 534.795 454.845 533.612C455.534 532.435 455.929 530.757 455.929 528.931Z" fill="#5EBDBA"/>
<path d="M470.378 536.527H467.47V525.187C467.47 523.261 467.175 521.984 465.203 521.984H464.561V521.342H467.47C469.148 521.342 469.884 521.837 470.231 522.626H470.378C471.214 521.837 472.645 521.001 474.571 521.001C476.002 521.001 477.333 521.248 478.369 522.138C479.405 523.027 480.094 524.505 480.094 526.818V536.534H477.185V526.818C477.185 525.24 476.744 524.11 476.102 523.415C475.414 522.773 474.524 522.479 473.635 522.479C472.304 522.479 471.221 523.268 470.378 524.157V536.527Z" fill="#5EBDBA"/>
<path d="M499.512 532.629C499.512 534.006 498.924 535.043 497.887 535.732C496.904 536.474 495.42 536.868 493.842 536.868C491.281 536.868 489.649 536.373 488.86 535.538C488.024 534.749 488.024 533.813 488.024 532.134H488.666C489.014 534.254 490.438 535.538 493.2 535.538C495.667 535.538 496.75 534.602 496.75 533.271C496.75 531.987 495.814 531.198 493.842 530.362L491.916 529.573C489.449 528.59 488.018 527.306 488.018 525.187C488.018 523.809 488.606 522.773 489.549 522.077C490.485 521.335 491.816 520.994 493.347 520.994C495.814 520.994 497.392 521.489 498.228 522.278C499.017 523.114 499.017 524.05 499.017 525.682H498.375C498.028 523.609 496.603 522.278 494.036 522.278C491.916 522.278 490.779 523.261 490.779 524.545C490.779 525.681 491.715 526.618 493.34 527.306L495.313 528.095C498.081 529.232 499.512 530.416 499.512 532.629Z" fill="#5EBDBA"/>
</svg>
